{"title":"The Passenger [1975] DVDRip XviD - CODY","uid":7306134,"size":943487665,"categoryP":"video","categoryS":"movies","magnet":"?xt=urn:btih:eb70f3944b9fd431101e4a79ea957d999e67fbcc&amp;dn=The+Passenger+%5B1975%5D+DVDRip+XviD+-+CODY&amp;tr=udp%3A%2F%2Ftracker.openbittorrent.com%3A80&amp;tr=udp%3A%2F%2Fopen.demonii.com%3A1337&amp;tr=udp%3A%2F%2Ftracker.coppersurfer.tk%3A6969&amp;tr=udp%3A%2F%2Fexodus.desync.com%3A6969","seeders":20,"leechers":1,"uploader":"CODYBOSS1969","files":5,"time":1338201362,"description":"General\nComplete name                            : The Passenger [1975] DVDRip XviD - CODY.avi\nFormat                                   : AVI\nFormat/Info                              : Audio Video Interleave\nFormat profile                           : OpenDML\nFormat settings                          : rec\nFile size                                : 899 MiB\nDuration                                 : 2h 0mn\nOverall bit rate                         : 1 040 Kbps\nWriting application                      : AVI-Mux GUI 1.17.8.3, Feb 16 201019:42:50\n\nVideo\nID                                       : 0\nFormat                                   : MPEG-4 Visual\nFormat profile                           : Advanced Simple@L5\nFormat settings, BVOP                    : 4\nFormat settings, QPel                    : No\nFormat settings, GMC                     : No warppoints\nFormat settings, Matrix                  : Default (H.263)\nCodec ID                                 : XVID\nCodec ID/Hint                            : XviD\nDuration                                 : 2h 0mn\nBit rate                                 : 904 Kbps\nWidth                                    : 720 pixels\nHeight                                   : 392 pixels\nDisplay aspect ratio                     : 16:9\nFrame rate                               : 25.000 fps\nColor space                              : YUV\nChroma subsampling                       : 4:2:0\nBit depth                                : 8 bits\nScan type                                : Progressive\nCompression mode                         : Lossy\nBits/(Pixel*Frame)                       : 0.128\nStream size                              : 781 MiB (87%)\nWriting library                          : XviD 1.2.1 (UTC 2008-12-04)\n\nAudio\nID                                       : 1\nFormat                                   : MPEG Audio\nFormat version                           : Version 1\nFormat profile                           : Layer 3\nCodec ID                                 : 55\nCodec ID/Hint                            : MP3\nDuration                                 : 2h 0mn\nBit rate mode                            : Constant\nBit rate                                 : 128 Kbps\nChannel(s)                               : 2 channels\nSampling rate                            : 48.0 KHz\nCompression mode                         : Lossy\nStream size                              : 110 MiB (12%)\nAlignment                                : Aligned on interleaves\nInterleave, duration                     : 24 ms (0.60 video frame)\nInterleave, preload duration             : 192 ms\nWriting library                          : LAME3.99.1\n\n\n\n\nIMDB link:                                &lt;a href=&quot; http://www.imdb.com/title/tt0073580/&quot; rel=&quot;nofollow&quot; target=&quot;_NEW&quot;&gt; http://www.imdb.com/title/tt0073580/&lt;/a&gt;\n\n\n\nSubtitles included                       : Romanian\n\n\n\nPlease seed at least 1,5:1. This way this torrent has a chance to survive !\n\n\n\nThanks. Enjoy !!\t\n","torrent":{"xt":"urn:btih:eb70f3944b9fd431101e4a79ea957d999e67fbcc","amp;dn":"The+Passenger+%5B1975%5D+DVDRip+XviD+-+CODY","amp;tr":["udp%3A%2F%2Ftracker.openbittorrent.com%3A80","udp%3A%2F%2Fopen.demonii.com%3A1337","udp%3A%2F%2Ftracker.coppersurfer.tk%3A6969","udp%3A%2F%2Fexodus.desync.com%3A6969"],"infoHash":"eb70f3944b9fd431101e4a79ea957d999e67fbcc","infoHashBuffer":{"type":"Buffer","data":[235,112,243,148,75,159,212,49,16,30,74,121,234,149,125,153,158,103,251,204]},"announce":[],"urlList":[]}}